# WaveFront *.obj file (generated by Autodesk ATF)

mtllib part.mtl

g 实体1

v 0.000000 -0.009000 -0.011121
v -0.000147 -0.009000 -0.011111
v -0.000293 -0.009000 -0.011081
v -0.000574 -0.009000 -0.010960
v -0.000833 -0.009000 -0.010764
v -0.001061 -0.009000 -0.010500
v -0.001247 -0.009000 -0.010179
v -0.001386 -0.009000 -0.009812
v -0.001471 -0.009000 -0.009414
v -0.001500 -0.009000 -0.009000
v -0.001471 -0.009000 -0.008586
v -0.001386 -0.009000 -0.008188
v -0.001247 -0.009000 -0.007821
v -0.001061 -0.009000 -0.007500
v -0.000833 -0.009000 -0.007236
v -0.000574 -0.009000 -0.007040
v -0.000293 -0.009000 -0.006919
v -0.000147 -0.009000 -0.006889
v 0.000000 -0.009000 -0.006879
v 0.000147 -0.009000 -0.006889
v 0.000293 -0.009000 -0.006919
v 0.000574 -0.009000 -0.007040
v 0.000833 -0.009000 -0.007236
v 0.001061 -0.009000 -0.007500
v 0.001247 -0.009000 -0.007821
v 0.001386 -0.009000 -0.008188
v 0.001471 -0.009000 -0.008586
v 0.001500 -0.009000 -0.009000
v 0.001471 -0.009000 -0.009414
v 0.001386 -0.009000 -0.009812
v 0.001247 -0.009000 -0.010179
v 0.001061 -0.009000 -0.010500
v 0.000833 -0.009000 -0.010764
v 0.000574 -0.009000 -0.010960
v 0.000293 -0.009000 -0.011081
v 0.000147 -0.009000 -0.011111
v -0.000000 0.000000 0.002121
v 0.000147 0.000000 0.002111
v 0.000293 0.000000 0.002081
v 0.000574 0.000000 0.001960
v 0.000833 0.000000 0.001764
v 0.001061 0.000000 0.001500
v 0.001247 0.000000 0.001179
v 0.001386 0.000000 0.000812
v 0.001471 0.000000 0.000414
v 0.001500 0.000000 -0.000000
v 0.001471 0.000000 -0.000414
v 0.001386 0.000000 -0.000812
v 0.001247 0.000000 -0.001179
v 0.001061 0.000000 -0.001500
v 0.000833 0.000000 -0.001764
v 0.000574 0.000000 -0.001960
v 0.000293 0.000000 -0.002081
v 0.000147 0.000000 -0.002111
v 0.000000 0.000000 -0.002121
v -0.000147 0.000000 -0.002111
v -0.000293 0.000000 -0.002081
v -0.000574 0.000000 -0.001960
v -0.000833 0.000000 -0.001764
v -0.001061 0.000000 -0.001500
v -0.001247 0.000000 -0.001179
v -0.001386 0.000000 -0.000812
v -0.001471 0.000000 -0.000414
v -0.001500 0.000000 -0.000000
v -0.001471 0.000000 0.000414
v -0.001386 0.000000 0.000812
v -0.001247 0.000000 0.001179
v -0.001061 0.000000 0.001500
v -0.000833 0.000000 0.001764
v -0.000574 0.000000 0.001960
v -0.000293 0.000000 0.002081
v -0.000147 0.000000 0.002111
v -0.001500 -0.004500 -0.004500
v 0.000000 -0.005561 -0.003439
v 0.000388 -0.005525 -0.003475
v 0.000750 -0.005419 -0.003581
v 0.001061 -0.005250 -0.003750
v 0.001299 -0.005030 -0.003970
v 0.001449 -0.004775 -0.004225
v 0.001500 -0.004500 -0.004500
v 0.001449 -0.004225 -0.004775
v 0.001299 -0.003970 -0.005030
v 0.001061 -0.003750 -0.005250
v 0.000750 -0.003581 -0.005419
v 0.000388 -0.003475 -0.005525
v 0.000000 -0.003439 -0.005561
v -0.000388 -0.003475 -0.005525
v -0.000750 -0.003581 -0.005419
v -0.001061 -0.003750 -0.005250
v -0.001299 -0.003970 -0.005030
v -0.001449 -0.004225 -0.004775
v -0.001449 -0.004775 -0.004225
v -0.001299 -0.005030 -0.003970
v -0.001061 -0.005250 -0.003750
v -0.000750 -0.005419 -0.003581
v -0.000388 -0.005525 -0.003475
v -0.050000 0.000000 0.050000
v -0.050000 0.000000 -0.050000
v -0.050000 -0.010000 -0.050000
v -0.050000 -0.010000 0.050000
v 0.050000 0.000000 0.050000
v 0.050000 -0.010000 0.050000
v 0.050000 0.000000 -0.050000
v 0.050000 -0.010000 -0.050000
vt -0.111111 -0.014703 0.000000
vt 0.311111 -0.014703 0.000000
vt -0.112132 0.000000 0.000000
vt 0.312132 0.000000 0.000000
vt -0.111111 0.014703 0.000000
vt 0.311111 0.014703 0.000000
vt -0.108056 0.029264 0.000000
vt 0.308056 0.029264 0.000000
vt -0.095984 0.057403 0.000000
vt 0.295984 0.057403 0.000000
vt -0.076381 0.083336 0.000000
vt 0.276381 0.083336 0.000000
vt -0.050000 0.106066 0.000000
vt 0.250000 0.106066 0.000000
vt -0.017854 0.124720 0.000000
vt 0.217854 0.124720 0.000000
vt 0.018821 0.138582 0.000000
vt 0.181179 0.138582 0.000000
vt 0.058615 0.147118 0.000000
vt 0.141385 0.147118 0.000000
vt 0.100000 0.150000 0.000000
vt 0.308056 -0.029264 0.000000
vt -0.108056 -0.029264 0.000000
vt 0.295984 -0.057403 0.000000
vt -0.095984 -0.057403 0.000000
vt 0.276381 -0.083336 0.000000
vt -0.076381 -0.083336 0.000000
vt 0.250000 -0.106066 0.000000
vt -0.050000 -0.106066 0.000000
vt 0.217854 -0.124720 0.000000
vt -0.017854 -0.124720 0.000000
vt 0.181179 -0.138582 0.000000
vt 0.018821 -0.138582 0.000000
vt 0.141385 -0.147118 0.000000
vt 0.058615 -0.147118 0.000000
vt 0.100000 -0.150000 0.000000
vt 0.149278 -0.250346 0.000000
vt 0.150000 -0.235619 0.000000
vt -0.636396 -0.235619 0.000000
vt 0.149278 -0.220893 0.000000
vt -0.636396 -0.196350 0.000000
vt 0.147118 -0.206167 0.000000
vt 0.138582 -0.176715 0.000000
vt -0.636396 -0.157080 0.000000
vt 0.124720 -0.147262 0.000000
vt -0.636396 -0.117810 0.000000
vt 0.106066 -0.117810 0.000000
vt 0.083336 -0.088357 0.000000
vt -0.636396 -0.078540 0.000000
vt 0.057403 -0.058905 0.000000
vt -0.636396 -0.039270 0.000000
vt 0.029264 -0.029452 0.000000
vt -0.636396 0.000000 0.000000
vt -0.000000 0.000000 0.000000
vt -0.029264 0.029452 0.000000
vt -0.636396 0.039270 0.000000
vt -0.057403 0.058905 0.000000
vt -0.636396 0.078540 0.000000
vt -0.083336 0.088357 0.000000
vt -0.636396 0.117810 0.000000
vt -0.106066 0.117810 0.000000
vt -0.124720 0.147262 0.000000
vt -0.636396 0.157080 0.000000
vt -0.138582 0.176715 0.000000
vt -0.636396 0.196350 0.000000
vt -0.147118 0.206167 0.000000
vt -0.149278 0.220893 0.000000
vt -0.636396 0.235619 0.000000
vt -0.150000 0.235619 0.000000
vt -0.149278 0.250346 0.000000
vt -0.636396 0.274889 0.000000
vt -0.147118 0.265072 0.000000
vt -0.138582 0.294524 0.000000
vt -0.636396 0.314159 0.000000
vt -0.124720 0.323977 0.000000
vt -0.636396 0.353429 0.000000
vt -0.106066 0.353429 0.000000
vt -0.083336 0.382882 0.000000
vt -0.636396 0.392699 0.000000
vt -0.057403 0.412334 0.000000
vt -0.636396 0.431969 0.000000
vt -0.029264 0.441786 0.000000
vt -0.636396 0.471239 0.000000
vt -0.000000 0.471239 0.000000
vt -0.636396 -0.471239 0.000000
vt -0.000000 -0.471239 0.000000
vt 0.029264 -0.441786 0.000000
vt -0.636396 -0.431969 0.000000
vt 0.057403 -0.412334 0.000000
vt -0.636396 -0.392699 0.000000
vt 0.083336 -0.382882 0.000000
vt -0.636396 -0.353429 0.000000
vt 0.106066 -0.353429 0.000000
vt 0.124720 -0.323977 0.000000
vt -0.636396 -0.314159 0.000000
vt 0.138582 -0.294524 0.000000
vt -0.636396 -0.274889 0.000000
vt 0.147118 -0.265072 0.000000
vt -1.422070 0.250346 0.000000
vt -1.422792 0.235619 0.000000
vt -1.422070 0.220893 0.000000
vt -1.419910 0.206167 0.000000
vt -1.411374 0.176715 0.000000
vt -1.397513 0.147262 0.000000
vt -1.378858 0.117810 0.000000
vt -1.356128 0.088357 0.000000
vt -1.330195 0.058905 0.000000
vt -1.302056 0.029452 0.000000
vt -1.272792 0.000000 0.000000
vt -1.243529 -0.029452 0.000000
vt -1.215390 -0.058905 0.000000
vt -1.189457 -0.088357 0.000000
vt -1.166726 -0.117810 0.000000
vt -1.148072 -0.147262 0.000000
vt -1.134210 -0.176715 0.000000
vt -1.125674 -0.206167 0.000000
vt -1.123514 -0.220893 0.000000
vt -1.122792 -0.235619 0.000000
vt -1.123514 -0.250346 0.000000
vt -1.125674 -0.265072 0.000000
vt -1.134210 -0.294524 0.000000
vt -1.148072 -0.323977 0.000000
vt -1.166726 -0.353429 0.000000
vt -1.189457 -0.382882 0.000000
vt -1.215390 -0.412334 0.000000
vt -1.243529 -0.441786 0.000000
vt -1.272792 -0.471239 0.000000
vt -1.272792 0.471239 0.000000
vt -1.302056 0.441786 0.000000
vt -1.330195 0.412334 0.000000
vt -1.356128 0.382882 0.000000
vt -1.378858 0.353429 0.000000
vt -1.397513 0.323977 0.000000
vt -1.411374 0.294524 0.000000
vt -1.419910 0.265072 0.000000
vt 0.000000 0.000000 0.000000
vt 10.000000 0.000000 0.000000
vt 0.000000 1.000000 0.000000
vt 10.000000 1.000000 0.000000
vt 0.000000 0.000000 0.000000
vt 10.000000 0.000000 0.000000
vt 0.000000 1.000000 0.000000
vt 10.000000 1.000000 0.000000
vt 0.000000 0.000000 0.000000
vt 10.000000 0.000000 0.000000
vt 0.000000 1.000000 0.000000
vt 10.000000 1.000000 0.000000
vt 0.000000 0.000000 0.000000
vt 10.000000 0.000000 0.000000
vt 0.000000 1.000000 0.000000
vt 10.000000 1.000000 0.000000
vt -0.014703 -0.211111 0.000000
vt -5.000000 -5.000000 0.000000
vt -0.000000 -0.212132 0.000000
vt 5.000000 -5.000000 0.000000
vt 0.014703 -0.211111 0.000000
vt 0.029264 -0.208056 0.000000
vt 0.057403 -0.195984 0.000000
vt 0.083336 -0.176381 0.000000
vt 0.106066 -0.150000 0.000000
vt 0.124720 -0.117854 0.000000
vt 0.138582 -0.081179 0.000000
vt 0.147118 -0.041385 0.000000
vt 0.150000 0.000000 0.000000
vt 5.000000 5.000000 0.000000
vt 0.147118 0.041385 0.000000
vt 0.138582 0.081179 0.000000
vt 0.124720 0.117854 0.000000
vt 0.106066 0.150000 0.000000
vt 0.083336 0.176381 0.000000
vt 0.057403 0.195984 0.000000
vt 0.029264 0.208056 0.000000
vt 0.014703 0.211111 0.000000
vt 0.000000 0.212132 0.000000
vt -5.000000 5.000000 0.000000
vt -0.014703 0.211111 0.000000
vt -0.029264 0.208056 0.000000
vt -0.057403 0.195984 0.000000
vt -0.083336 0.176381 0.000000
vt -0.106066 0.150000 0.000000
vt -0.124720 0.117854 0.000000
vt -0.138582 0.081179 0.000000
vt -0.147118 0.041385 0.000000
vt -0.150000 0.000000 0.000000
vt -0.147118 -0.041385 0.000000
vt -0.138582 -0.081179 0.000000
vt -0.124720 -0.117854 0.000000
vt -0.106066 -0.150000 0.000000
vt -0.083336 -0.176381 0.000000
vt -0.057403 -0.195984 0.000000
vt -0.029264 -0.208056 0.000000
vt 5.000000 5.000000 0.000000
vt -5.000000 5.000000 0.000000
vt 5.000000 -5.000000 0.000000
vt -5.000000 -5.000000 0.000000
vn -0.000000 100.000000 -0.000000
vn -0.000000 100.000000 -0.000000
vn -0.000000 100.000000 -0.000000
vn -0.000000 100.000000 -0.000000
vn -0.000000 100.000000 -0.000000
vn -0.000000 100.000000 -0.000000
vn -0.000000 100.000000 -0.000000
vn -0.000000 100.000000 -0.000000
vn -0.000000 100.000000 -0.000000
vn -0.000000 100.000000 -0.000000
vn -0.000000 100.000000 -0.000000
vn -0.000000 100.000000 -0.000000
vn -0.000000 100.000000 -0.000000
vn -0.000000 100.000000 -0.000000
vn -0.000000 100.000000 -0.000000
vn -0.000000 100.000000 -0.000000
vn -0.000000 100.000000 -0.000000
vn -0.000000 100.000000 -0.000000
vn -0.000000 100.000000 -0.000000
vn -0.000000 100.000000 -0.000000
vn -0.000000 100.000000 -0.000000
vn -0.000000 100.000000 -0.000000
vn -0.000000 100.000000 -0.000000
vn -0.000000 100.000000 -0.000000
vn -0.000000 100.000000 -0.000000
vn -0.000000 100.000000 -0.000000
vn -0.000000 100.000000 -0.000000
vn -0.000000 100.000000 -0.000000
vn -0.000000 100.000000 -0.000000
vn -0.000000 100.000000 -0.000000
vn -0.000000 100.000000 -0.000000
vn -0.000000 100.000000 -0.000000
vn -0.000000 100.000000 -0.000000
vn -0.000000 100.000000 -0.000000
vn -0.000000 100.000000 -0.000000
vn -0.000000 100.000000 -0.000000
vn 9.801714 70.370187 -70.370187
vn 0.000000 70.710678 -70.710678
vn -0.000000 70.710678 -70.710678
vn -9.801714 70.370187 -70.370187
vn -25.881905 68.301270 -68.301270
vn -19.509032 69.351992 -69.351992
vn -38.268343 65.328148 -65.328148
vn -50.000000 61.237244 -61.237244
vn -55.557023 58.793780 -58.793780
vn -70.710678 50.000000 -50.000000
vn -70.710678 50.000000 -50.000000
vn -83.146961 39.284748 -39.284748
vn -86.602540 35.355339 -35.355339
vn -92.387953 27.059805 -27.059805
vn -96.592583 18.301270 -18.301270
vn -98.078528 13.794969 -13.794969
vn -100.000000 -0.000000 0.000000
vn -100.000000 -0.000000 0.000000
vn -98.078528 -13.794969 13.794969
vn -96.592583 -18.301270 18.301270
vn -92.387953 -27.059805 27.059805
vn -86.602540 -35.355339 35.355339
vn -83.146961 -39.284748 39.284748
vn -70.710678 -50.000000 50.000000
vn -70.710678 -50.000000 50.000000
vn -55.557023 -58.793780 58.793780
vn -50.000000 -61.237244 61.237244
vn -38.268343 -65.328148 65.328148
vn -25.881905 -68.301270 68.301270
vn -19.509032 -69.351992 69.351992
vn -9.801714 -70.370187 70.370187
vn -0.000000 -70.710678 70.710678
vn -0.000000 -70.710678 70.710678
vn 9.801714 -70.370187 70.370187
vn 25.881905 -68.301270 68.301270
vn 19.509032 -69.351992 69.351992
vn 38.268343 -65.328148 65.328148
vn 50.000000 -61.237244 61.237244
vn 55.557023 -58.793780 58.793780
vn 70.710678 -50.000000 50.000000
vn 70.710678 -50.000000 50.000000
vn 83.146961 -39.284748 39.284748
vn 86.602540 -35.355339 35.355339
vn 92.387953 -27.059805 27.059805
vn 96.592583 -18.301270 18.301270
vn 98.078528 -13.794969 13.794969
vn 100.000000 -0.000000 0.000000
vn 100.000000 -0.000000 0.000000
vn 98.078528 13.794969 -13.794969
vn 96.592583 18.301270 -18.301270
vn 92.387953 27.059805 -27.059805
vn 86.602540 35.355339 -35.355339
vn 83.146961 39.284748 -39.284748
vn 70.710678 50.000000 -50.000000
vn 70.710678 50.000000 -50.000000
vn 55.557023 58.793780 -58.793780
vn 50.000000 61.237244 -61.237244
vn 38.268343 65.328148 -65.328148
vn 25.881905 68.301270 -68.301270
vn 19.509032 69.351992 -69.351992
vn 9.801714 -70.370187 70.370187
vn -0.000000 -70.710678 70.710678
vn -9.801714 -70.370187 70.370187
vn -19.509032 -69.351992 69.351992
vn -38.268343 -65.328148 65.328148
vn -55.557023 -58.793780 58.793780
vn -70.710678 -50.000000 50.000000
vn -83.146961 -39.284748 39.284748
vn -92.387953 -27.059805 27.059805
vn -98.078528 -13.794969 13.794969
vn -100.000000 0.000000 0.000000
vn -98.078528 13.794969 -13.794969
vn -92.387953 27.059805 -27.059805
vn -83.146961 39.284748 -39.284748
vn -70.710678 50.000000 -50.000000
vn -55.557023 58.793780 -58.793780
vn -38.268343 65.328148 -65.328148
vn -19.509032 69.351992 -69.351992
vn -9.801714 70.370187 -70.370187
vn -0.000000 70.710678 -70.710678
vn 9.801714 70.370187 -70.370187
vn 19.509032 69.351992 -69.351992
vn 38.268343 65.328148 -65.328148
vn 55.557023 58.793780 -58.793780
vn 70.710678 50.000000 -50.000000
vn 83.146961 39.284748 -39.284748
vn 92.387953 27.059805 -27.059805
vn 98.078528 13.794969 -13.794969
vn 100.000000 0.000000 -0.000000
vn 98.078528 -13.794969 13.794969
vn 92.387953 -27.059805 27.059805
vn 83.146961 -39.284748 39.284748
vn 70.710678 -50.000000 50.000000
vn 55.557023 -58.793780 58.793780
vn 38.268343 -65.328148 65.328148
vn 19.509032 -69.351992 69.351992
vn -100.000000 0.000000 0.000000
vn -100.000000 0.000000 0.000000
vn -100.000000 0.000000 0.000000
vn -100.000000 0.000000 0.000000
vn 0.000000 0.000000 100.000000
vn 0.000000 0.000000 100.000000
vn 0.000000 0.000000 100.000000
vn 0.000000 0.000000 100.000000
vn 100.000000 0.000000 -0.000000
vn 100.000000 0.000000 -0.000000
vn 100.000000 0.000000 -0.000000
vn 100.000000 0.000000 -0.000000
vn 0.000000 0.000000 -100.000000
vn 0.000000 0.000000 -100.000000
vn 0.000000 0.000000 -100.000000
vn 0.000000 0.000000 -100.000000
vn 0.000000 100.000000 0.000000
vn 0.000000 100.000000 0.000000
vn 0.000000 100.000000 0.000000
vn 0.000000 100.000000 0.000000
vn 0.000000 100.000000 0.000000
vn 0.000000 100.000000 0.000000
vn 0.000000 100.000000 0.000000
vn 0.000000 100.000000 0.000000
vn 0.000000 100.000000 0.000000
vn 0.000000 100.000000 0.000000
vn 0.000000 100.000000 0.000000
vn 0.000000 100.000000 0.000000
vn 0.000000 100.000000 0.000000
vn 0.000000 100.000000 0.000000
vn 0.000000 100.000000 0.000000
vn 0.000000 100.000000 0.000000
vn 0.000000 100.000000 0.000000
vn 0.000000 100.000000 0.000000
vn 0.000000 100.000000 0.000000
vn 0.000000 100.000000 0.000000
vn 0.000000 100.000000 0.000000
vn 0.000000 100.000000 0.000000
vn 0.000000 100.000000 0.000000
vn 0.000000 100.000000 0.000000
vn 0.000000 100.000000 0.000000
vn 0.000000 100.000000 0.000000
vn 0.000000 100.000000 0.000000
vn 0.000000 100.000000 0.000000
vn 0.000000 100.000000 0.000000
vn 0.000000 100.000000 0.000000
vn 0.000000 100.000000 0.000000
vn 0.000000 100.000000 0.000000
vn 0.000000 100.000000 0.000000
vn 0.000000 100.000000 0.000000
vn 0.000000 100.000000 0.000000
vn 0.000000 100.000000 0.000000
vn 0.000000 100.000000 0.000000
vn 0.000000 100.000000 0.000000
vn 0.000000 100.000000 0.000000
vn 0.000000 100.000000 0.000000
vn 0.000000 -100.000000 0.000000
vn 0.000000 -100.000000 0.000000
vn 0.000000 -100.000000 0.000000
vn 0.000000 -100.000000 0.000000
usemtl 铝_-_缎光
f 2/1/1 18/2/2 1/3/3
f 1/3/3 18/2/2 19/4/4
f 1/3/3 19/4/4 36/5/5
f 36/5/5 19/4/4 20/6/6
f 36/5/5 20/6/6 35/7/7
f 35/7/7 20/6/6 21/8/8
f 35/7/7 21/8/8 34/9/9
f 34/9/9 21/8/8 22/10/10
f 34/9/9 22/10/10 33/11/11
f 33/11/11 22/10/10 23/12/12
f 33/11/11 23/12/12 32/13/13
f 32/13/13 23/12/12 24/14/14
f 32/13/13 24/14/14 31/15/15
f 31/15/15 24/14/14 25/16/16
f 31/15/15 25/16/16 30/17/17
f 30/17/17 25/16/16 26/18/18
f 30/17/17 26/18/18 29/19/19
f 29/19/19 26/18/18 27/20/20
f 29/19/19 27/20/20 28/21/21
f 18/2/2 2/1/1 17/22/22
f 17/22/22 2/1/1 3/23/23
f 17/22/22 3/23/23 16/24/24
f 16/24/24 3/23/23 4/25/25
f 16/24/24 4/25/25 15/26/26
f 15/26/26 4/25/25 5/27/27
f 15/26/26 5/27/27 14/28/28
f 14/28/28 5/27/27 6/29/29
f 14/28/28 6/29/29 13/30/30
f 13/30/30 6/29/29 7/31/31
f 13/30/30 7/31/31 12/32/32
f 12/32/32 7/31/31 8/33/33
f 12/32/32 8/33/33 11/34/34
f 11/34/34 8/33/33 9/35/35
f 11/34/34 9/35/35 10/36/36
f 72/37/37 37/38/38 74/39/39
f 74/39/39 37/38/38 38/40/40
f 74/39/39 38/40/40 75/41/41
f 75/41/41 38/40/40 39/42/42
f 75/41/41 39/42/42 40/43/43
f 75/41/41 40/43/43 76/44/44
f 76/44/44 40/43/43 41/45/45
f 76/44/44 41/45/45 77/46/46
f 77/46/46 41/45/45 42/47/47
f 77/46/46 42/47/47 43/48/48
f 77/46/46 43/48/48 78/49/49
f 78/49/49 43/48/48 44/50/50
f 78/49/49 44/50/50 79/51/51
f 79/51/51 44/50/50 45/52/52
f 79/51/51 45/52/52 80/53/53
f 80/53/53 45/52/52 46/54/54
f 80/53/53 46/54/54 47/55/55
f 80/53/53 47/55/55 81/56/56
f 81/56/56 47/55/55 48/57/57
f 81/56/56 48/57/57 82/58/58
f 82/58/58 48/57/57 49/59/59
f 82/58/58 49/59/59 83/60/60
f 83/60/60 49/59/59 50/61/61
f 83/60/60 50/61/61 51/62/62
f 83/60/60 51/62/62 84/63/63
f 84/63/63 51/62/62 52/64/64
f 84/63/63 52/64/64 85/65/65
f 85/65/65 52/64/64 53/66/66
f 85/65/65 53/66/66 54/67/67
f 85/65/65 54/67/67 86/68/68
f 86/68/68 54/67/67 55/69/69
f 86/68/68 55/69/69 56/70/70
f 86/68/68 56/70/70 87/71/71
f 87/71/71 56/70/70 57/72/72
f 87/71/71 57/72/72 58/73/73
f 87/71/71 58/73/73 88/74/74
f 88/74/74 58/73/73 59/75/75
f 88/74/74 59/75/75 89/76/76
f 89/76/76 59/75/75 60/77/77
f 89/76/76 60/77/77 61/78/78
f 89/76/76 61/78/78 90/79/79
f 90/79/79 61/78/78 62/80/80
f 90/79/79 62/80/80 91/81/81
f 91/81/81 62/80/80 63/82/82
f 91/81/81 63/82/82 73/83/83
f 73/83/83 63/82/82 64/84/84
f 73/85/83 64/86/84 65/87/85
f 73/85/83 65/87/85 92/88/86
f 92/88/86 65/87/85 66/89/87
f 92/88/86 66/89/87 93/90/88
f 93/90/88 66/89/87 67/91/89
f 93/90/88 67/91/89 94/92/90
f 94/92/90 67/91/89 68/93/91
f 94/92/90 68/93/91 69/94/92
f 94/92/90 69/94/92 95/95/93
f 95/95/93 69/94/92 70/96/94
f 95/95/93 70/96/94 96/97/95
f 96/97/95 70/96/94 71/98/96
f 96/97/95 71/98/96 72/37/37
f 96/97/95 72/37/37 74/39/39
f 2/99/97 1/100/98 86/68/68
f 86/68/68 1/100/98 36/101/99
f 86/68/68 36/101/99 85/65/65
f 85/65/65 36/101/99 35/102/100
f 85/65/65 35/102/100 34/103/101
f 85/65/65 34/103/101 84/63/63
f 84/63/63 34/103/101 33/104/102
f 84/63/63 33/104/102 83/60/60
f 83/60/60 33/104/102 32/105/103
f 83/60/60 32/105/103 31/106/104
f 83/60/60 31/106/104 82/58/58
f 82/58/58 31/106/104 30/107/105
f 82/58/58 30/107/105 81/56/56
f 81/56/56 30/107/105 29/108/106
f 81/56/56 29/108/106 80/53/53
f 80/53/53 29/108/106 28/109/107
f 80/53/53 28/109/107 27/110/108
f 80/53/53 27/110/108 79/51/51
f 79/51/51 27/110/108 26/111/109
f 79/51/51 26/111/109 78/49/49
f 78/49/49 26/111/109 25/112/110
f 78/49/49 25/112/110 77/46/46
f 77/46/46 25/112/110 24/113/111
f 77/46/46 24/113/111 23/114/112
f 77/46/46 23/114/112 76/44/44
f 76/44/44 23/114/112 22/115/113
f 76/44/44 22/115/113 75/41/41
f 75/41/41 22/115/113 21/116/114
f 75/41/41 21/116/114 20/117/115
f 75/41/41 20/117/115 74/39/39
f 74/39/39 20/117/115 19/118/116
f 74/39/39 19/118/116 18/119/117
f 74/39/39 18/119/117 96/97/95
f 96/97/95 18/119/117 17/120/118
f 96/97/95 17/120/118 16/121/119
f 96/97/95 16/121/119 95/95/93
f 95/95/93 16/121/119 15/122/120
f 95/95/93 15/122/120 94/92/90
f 94/92/90 15/122/120 14/123/121
f 94/92/90 14/123/121 13/124/122
f 94/92/90 13/124/122 93/90/88
f 93/90/88 13/124/122 12/125/123
f 93/90/88 12/125/123 92/88/86
f 92/88/86 12/125/123 11/126/124
f 92/88/86 11/126/124 73/85/83
f 73/85/83 11/126/124 10/127/125
f 73/83/83 10/128/125 9/129/126
f 73/83/83 9/129/126 91/81/81
f 91/81/81 9/129/126 8/130/127
f 91/81/81 8/130/127 90/79/79
f 90/79/79 8/130/127 7/131/128
f 90/79/79 7/131/128 89/76/76
f 89/76/76 7/131/128 6/132/129
f 89/76/76 6/132/129 5/133/130
f 89/76/76 5/133/130 88/74/74
f 88/74/74 5/133/130 4/134/131
f 88/74/74 4/134/131 87/71/71
f 87/71/71 4/134/131 3/135/132
f 87/71/71 3/135/132 2/99/97
f 87/71/71 2/99/97 86/68/68
f 97/136/133 98/137/134 100/138/135
f 100/138/135 98/137/134 99/139/136
f 101/140/137 97/141/138 102/142/139
f 102/142/139 97/141/138 100/143/140
f 103/144/141 101/145/142 104/146/143
f 104/146/143 101/145/142 102/147/144
f 98/148/145 103/149/146 99/150/147
f 99/150/147 103/149/146 104/151/148
f 72/152/149 97/153/150 37/154/151
f 37/154/151 97/153/150 101/155/152
f 37/154/151 101/155/152 38/156/153
f 38/156/153 101/155/152 39/157/154
f 39/157/154 101/155/152 40/158/155
f 40/158/155 101/155/152 41/159/156
f 41/159/156 101/155/152 42/160/157
f 42/160/157 101/155/152 43/161/158
f 43/161/158 101/155/152 44/162/159
f 44/162/159 101/155/152 45/163/160
f 45/163/160 101/155/152 46/164/161
f 46/164/161 101/155/152 103/165/162
f 46/164/161 103/165/162 47/166/163
f 47/166/163 103/165/162 48/167/164
f 48/167/164 103/165/162 49/168/165
f 49/168/165 103/165/162 50/169/166
f 50/169/166 103/165/162 51/170/167
f 51/170/167 103/165/162 52/171/168
f 52/171/168 103/165/162 53/172/169
f 53/172/169 103/165/162 54/173/170
f 54/173/170 103/165/162 55/174/171
f 55/174/171 103/165/162 98/175/172
f 55/174/171 98/175/172 56/176/173
f 56/176/173 98/175/172 57/177/174
f 57/177/174 98/175/172 58/178/175
f 58/178/175 98/175/172 59/179/176
f 59/179/176 98/175/172 60/180/177
f 60/180/177 98/175/172 61/181/178
f 61/181/178 98/175/172 62/182/179
f 62/182/179 98/175/172 63/183/180
f 63/183/180 98/175/172 64/184/181
f 64/184/181 98/175/172 97/153/150
f 64/184/181 97/153/150 65/185/182
f 65/185/182 97/153/150 66/186/183
f 66/186/183 97/153/150 67/187/184
f 67/187/184 97/153/150 68/188/185
f 68/188/185 97/153/150 69/189/186
f 69/189/186 97/153/150 70/190/187
f 70/190/187 97/153/150 71/191/188
f 71/191/188 97/153/150 72/152/149
f 104/192/189 102/193/190 99/194/191
f 99/194/191 102/193/190 100/195/192
# 104 vertices
# 195 texture params
# 192 normals
# 204 facets

# 1 groups
